<?xml version="1.0" standalone="no"?>
<!DOCTYPE svg PUBLIC "-//W3C//DTD SVG 20010904//EN"
 "http://www.w3.org/TR/2001/REC-SVG-20010904/DTD/svg10.dtd">
<svg version="1.0" xmlns="http://www.w3.org/2000/svg"
 width="256.000000pt" height="256.000000pt" viewBox="0 0 256.000000 256.000000"
 preserveAspectRatio="xMidYMid meet">
<metadata>
Created by potrace 1.11, written by Peter Selinger 2001-2013
</metadata>
<g transform="translate(0.000000,256.000000) scale(0.100000,-0.100000)"
fill="#000000" stroke="none">
<path d="M190 2222 c-107 -29 -165 -144 -126 -247 37 -95 137 -139 240 -105
38 12 90 63 105 103 29 76 -2 175 -67 221 -40 27 -108 40 -152 28z"/>
<path d="M2039 1982 c-1 -11 -8 -51 -25 -137 -9 -44 -17 -91 -19 -105 -4 -28
-10 -59 -31 -170 -8 -41 -16 -86 -18 -100 -2 -14 -7 -41 -10 -60 -31 -171 -31
-158 3 -165 22 -4 22 -5 37 80 4 22 8 42 9 45 0 3 5 28 10 55 5 28 9 53 11 58
1 4 2 17 3 29 1 27 14 15 31 -32 7 -19 18 -48 25 -65 8 -16 25 -59 38 -95 14
-36 28 -73 32 -82 7 -17 -3 -18 -124 -18 -110 0 -131 -2 -131 -15 0 -9 10 -15
28 -16 69 -2 274 0 277 3 2 2 -32 94 -76 203 -83 206 -84 214 -65 305 11 56
38 208 43 245 4 38 3 41 -21 43 -14 1 -26 -2 -27 -6z"/>
<path d="M364 1840 c-29 -11 -61 -54 -69 -92 -8 -36 3 -138 15 -138 5 0 18 29
30 64 25 76 48 100 97 100 27 0 42 -7 60 -29 31 -36 29 -52 -29 -215 -40 -114
-48 -127 -83 -151 -37 -25 -39 -30 -41 -80 -3 -132 10 -108 -158 -282 -84 -86
-86 -92 -109 -217 -3 -14 -13 -63 -22 -110 -9 -47 -19 -96 -21 -110 -3 -14 -9
-43 -14 -65 -22 -95 -6 -145 56 -171 29 -12 39 -12 66 -1 59 25 64 36 104 242
2 11 6 31 9 45 2 14 7 36 9 50 28 151 37 177 59 163 5 -3 7 -1 4 4 -4 6 19 37
51 70 136 141 225 240 239 267 8 15 17 49 21 75 8 66 8 230 -1 266 l-8 30 21
-25 c25 -31 76 -161 84 -215 7 -43 29 -83 52 -92 46 -17 106 47 83 89 -5 10
-8 18 -5 18 12 0 -39 150 -76 223 -91 182 -313 333 -424 287z"/>
<path d="M398 1746 c-9 -7 -36 -65 -59 -129 l-43 -117 -130 -66 c-72 -36 -139
-73 -148 -82 -37 -32 -8 -100 43 -104 16 -1 88 29 182 77 177 90 157 67 223
257 37 106 40 125 20 150 -17 22 -66 30 -88 14z"/>
<path d="M1700 1726 c0 -2 8 -10 18 -17 15 -13 16 -12 3 4 -13 16 -21 21 -21
13z"/>
<path d="M1046 1514 c-9 -23 -7 -103 3 -146 6 -27 5 -40 -4 -48 -10 -8 5 -56
67 -223 44 -116 86 -226 93 -244 17 -39 51 -58 135 -74 36 -6 77 -17 92 -23
28 -11 28 -12 26 -94 -1 -50 -6 -85 -12 -87 -6 -2 -60 -19 -121 -38 -66 -21
-109 -39 -107 -46 1 -7 -4 -19 -13 -27 -22 -23 -18 -51 9 -69 20 -14 28 -14
45 -3 12 7 22 16 22 20 1 5 2 14 3 21 1 6 -4 20 -12 30 -13 15 -13 17 0 17 9
0 49 11 90 25 40 14 79 25 86 25 17 0 15 -41 -4 -68 -18 -26 -11 -58 17 -72
41 -23 86 34 55 69 -9 10 -16 30 -16 45 0 24 3 28 23 23 12 -2 30 -8 40 -12
16 -7 18 -4 15 16 -2 17 -13 27 -38 35 l-35 12 -3 86 c-3 81 -2 86 18 86 11 0
20 5 20 10 0 6 9 10 20 10 18 0 20 7 20 54 0 34 -5 56 -12 58 -18 7 -223 2
-279 -6 l-47 -6 -41 110 c-22 61 -41 113 -41 116 0 2 14 -11 31 -31 34 -38 85
-50 76 -17 -3 9 -8 33 -11 52 -11 62 -58 201 -102 297 -8 17 -14 34 -14 37 0
3 -12 26 -27 51 -28 46 -56 58 -67 29z"/>
<path d="M1703 1222 c-83 -2 -103 -6 -103 -17 0 -16 17 -18 144 -17 38 0 73 5
78 10 19 19 -20 27 -119 24z"/>
<path d="M1499 1156 c0 -1 -2 -10 -3 -22 -2 -14 3 -21 13 -21 48 0 51 -3 51
-39 0 -19 4 -33 8 -30 15 9 35 -12 37 -38 0 -14 -3 -26 -8 -26 -4 0 -5 -5 -1
-11 10 -17 11 -202 1 -216 -5 -7 -6 -13 -1 -13 11 0 11 -301 0 -318 -4 -7 -2
-12 4 -12 6 0 8 -5 4 -11 -8 -14 13 -28 35 -22 12 3 17 16 18 46 1 23 2 45 2
49 1 3 166 6 369 5 l367 -2 3 -48 c3 -46 4 -48 30 -45 l27 3 0 328 0 327 22 0
c20 0 23 5 23 39 0 37 1 38 30 36 25 -2 30 1 30 19 l0 22 -530 0 c-291 0 -530
0 -531 0z"/>
<path d="M521 1043 c-30 -32 -77 -83 -105 -113 l-52 -55 -2 -72 -2 -73 137
-182 c152 -201 178 -224 238 -205 46 14 66 37 72 87 5 35 1 47 -28 88 -18 26
-41 56 -51 67 -9 11 -48 63 -88 115 l-71 94 6 144 c3 79 8 148 11 153 3 5 1 9
-3 9 -5 0 -33 -26 -62 -57z"/>
<path d="M1683 447 c-10 -16 7 -55 26 -60 28 -7 63 20 59 46 -2 17 -10 21 -41
22 -21 0 -41 -3 -44 -8z"/>
</g>
</svg>
